<svg xmlns="http://www.w3.org/2000/svg" viewBox="0 0 256 256" width="256" height="256">
  <defs>
    <linearGradient id="opt1-parchment-pv" x1="0%" y1="0%" x2="0%" y2="100%">
      <stop offset="0%" stop-color="#FCFAF5"/>
      <stop offset="100%" stop-color="#F2EBE0"/>
    </linearGradient>
    <linearGradient id="opt1-gold-pv" x1="0%" y1="0%" x2="100%" y2="100%">
      <stop offset="0%" stop-color="#D9B76A"/>
      <stop offset="50%" stop-color="#B88A34"/>
      <stop offset="100%" stop-color="#8C631B"/>
    </linearGradient>
    <filter id="opt1-shadow-pv" x="-10%" y="-10%" width="120%" height="120%">
      <feDropShadow dx="0" dy="4" stdDeviation="5" flood-color="#241E1A" flood-opacity="0.08"/>
    </filter>
  </defs>

  <g filter="url(#opt1-shadow-pv)">
    <path d="M128 20 C190 20 226 28 226 92 C226 172 128 236 128 236 C128 236 30 172 30 92 C30 28 66 20 128 20 Z" fill="url(#opt1-parchment-pv)" stroke="url(#opt1-gold-pv)" stroke-width="3.5"/>
    <path d="M128 28 C182 28 214 36 214 92 C214 163 128 222 128 222 C128 222 42 163 42 92 C42 36 74 28 128 28 Z" stroke="#D8C8AF" stroke-width="1.5" stroke-dasharray="3 3" fill="none"/>
  </g>

  <!-- Làn Khói Trầm Hương Nghi Ngút (Incense Smoke) -->
  <g stroke="#E65100" stroke-width="2" stroke-linecap="round" fill="none" opacity="0.75">
    <path d="M128 50 C118 60 138 68 128 78 C120 86 134 94 126 104" stroke-dasharray="4 4"/>
  </g>

  <!-- Cây Nến Phục Sinh (Paschal Candle) -->
  <!-- Ngọn lửa nến -->
  <path d="M128 62 C132 68 135 72 128 78 C121 72 124 68 128 62 Z" fill="#FFA726" stroke="#E65100" stroke-width="1.8"/>
  <circle cx="128" cy="73" r="2.5" fill="#FFE082"/>
  <!-- Thân nến -->
  <rect x="122" y="78" width="12" height="48" rx="2" fill="#FFFFFF" stroke="url(#opt1-gold-pv)" stroke-width="2.2"/>
  <!-- Thánh giá trên nến -->
  <path d="M122 92 H134 M128 86 V100" stroke="#C5A059" stroke-width="1.8" stroke-linecap="round"/>
  <!-- 4 đinh thánh -->
  <circle cx="128" cy="84" r="1.2" fill="#B71C1C"/>
  <circle cx="128" cy="102" r="1.2" fill="#B71C1C"/>
  <circle cx="120" cy="92" r="1.2" fill="#B71C1C"/>
  <circle cx="136" cy="92" r="1.2" fill="#B71C1C"/>

  <!-- Bình Hương Phụng Vụ (Thurible / Censer) -->
  <!-- Dây xích treo -->
  <g stroke="#8D6E63" stroke-width="1.5" stroke-dasharray="2 3">
    <line x1="102" y1="126" x2="118" y2="76"/>
    <line x1="154" y1="126" x2="138" y2="76"/>
    <line x1="128" y1="126" x2="128" y2="76"/>
  </g>
  <circle cx="128" cy="76" r="3.5" fill="url(#opt1-gold-pv)"/>

  <!-- Chén hương -->
  <path d="M92 142 C92 166 108 174 128 174 C148 174 164 166 164 142 H92 Z" fill="#FFFDF8" stroke="url(#opt1-gold-pv)" stroke-width="2.5" stroke-linejoin="round"/>
  <path d="M106 142 L116 126 H140 L150 142" stroke="url(#opt1-gold-pv)" stroke-width="2.2"/>
  <!-- Lỗ thoát khói trầm -->
  <circle cx="120" cy="134" r="2.2" fill="url(#opt1-gold-pv)"/>
  <circle cx="128" cy="134" r="2.2" fill="url(#opt1-gold-pv)"/>
  <circle cx="136" cy="134" r="2.2" fill="url(#opt1-gold-pv)"/>
  <!-- Chân đế bình hương -->
  <path d="M116 174 H140" stroke="url(#opt1-gold-pv)" stroke-width="3" stroke-linecap="round"/>

  <!-- Dải Ribbon Khẩu Hiệu TIẾN -->
  <path d="M78 198 H178" stroke="url(#opt1-gold-pv)" stroke-width="2.5" stroke-linecap="round"/>
  <circle cx="74" cy="198" r="2.5" fill="#B88A34"/>
  <circle cx="182" cy="198" r="2.5" fill="#B88A34"/>
  <text x="128" y="193" font-family="'Cinzel', Georgia, serif" font-size="12" font-weight="700" fill="#7A5500" text-anchor="middle" letter-spacing="3">TIẾN</text>
  <text x="128" y="210" font-family="'Plus Jakarta Sans', sans-serif" font-size="8.5" font-weight="700" fill="#E65100" text-anchor="middle" letter-spacing="1">KHỐI PHỤNG VỤ</text>
</svg>