<svg xmlns="http://www.w3.org/2000/svg" viewBox="0 0 96 96" width="96" height="96">
  <defs>
    <linearGradient id="bg-rl" x1="0%" y1="0%" x2="100%" y2="100%">
      <stop offset="0%" stop-color="#F0FDF4"/>
      <stop offset="100%" stop-color="#DCFCE7"/>
    </linearGradient>
    <linearGradient id="gold-chalice" x1="0%" y1="0%" x2="100%" y2="100%">
      <stop offset="0%" stop-color="#FEF08A"/>
      <stop offset="50%" stop-color="#EAB308"/>
      <stop offset="100%" stop-color="#A16207"/>
    </linearGradient>
    <filter id="shadow-rl" x="-10%" y="-10%" width="120%" height="120%">
      <feDropShadow dx="0" dy="2" stdDeviation="2.5" flood-color="#713F12" flood-opacity="0.15"/>
    </filter>
  </defs>

  <!-- Modern Squircle (Khăn Xanh Viền Vàng Kim) -->
  <rect x="4" y="4" width="88" height="88" rx="24" fill="url(#bg-rl)" stroke="#EAB308" stroke-width="2"/>
  <rect x="7.5" y="7.5" width="81" height="81" rx="21" fill="none" stroke="#16A34A" stroke-width="1.2" stroke-dasharray="3 3"/>

  <!-- Hào Quang Mặt Trời Chiếu Rọi Thánh Thể -->
  <g stroke="#FDE047" stroke-width="1.5" stroke-linecap="round" opacity="0.8">
    <line x1="48" y1="12" x2="48" y2="18"/>
    <line x1="62" y1="18" x2="57" y2="23"/>
    <line x1="34" y1="18" x2="39" y2="23"/>
    <line x1="68" y1="32" x2="62" y2="32"/>
    <line x1="28" y1="32" x2="34" y2="32"/>
  </g>

  <!-- Bánh Thánh (Mình Thánh Chúa Luminous Host) -->
  <g filter="url(#shadow-rl)">
    <circle cx="48" cy="32" r="14" fill="#FFFFFF" stroke="url(#gold-chalice)" stroke-width="2"/>
    <circle cx="48" cy="32" r="11.5" fill="none" stroke="#FDE047" stroke-width="0.8" stroke-dasharray="2 1.5"/>
    <!-- Thánh Giá Hy Lạp IHS Trên Bánh Thánh -->
    <path d="M48 23 V41 M39 32 H57" stroke="#CA8A04" stroke-width="2.2" stroke-linecap="round"/>
    <circle cx="48" cy="32" r="2.5" fill="#FEF9C3"/>
  </g>

  <!-- Chén Thánh Phụng Vụ (Golden Holy Chalice) -->
  <g filter="url(#shadow-rl)">
    <!-- Miệng chén & Cúp chén -->
    <path d="M30 46 C30 62 40 66 48 66 C56 66 66 62 66 46 H30 Z" fill="url(#gold-chalice)" stroke="#854D0E" stroke-width="2" stroke-linejoin="round"/>
    <ellipse cx="48" cy="46" rx="18" ry="3.5" fill="#FEF08A" stroke="#854D0E" stroke-width="1.5"/>
    <!-- Thân trụ & Nút thắt chén thánh -->
    <path d="M48 66 V78" stroke="#854D0E" stroke-width="4" stroke-linecap="round"/>
    <circle cx="48" cy="72" r="3.5" fill="#FEF08A" stroke="#854D0E" stroke-width="1.5"/>
    <!-- Chân đế Chén Thánh vững chãi -->
    <path d="M34 82 C34 78 42 78 48 78 C54 78 62 78 62 82 H34 Z" fill="url(#gold-chalice)" stroke="#854D0E" stroke-width="2" stroke-linejoin="round"/>
  </g>

  <!-- Bông Lúa Mì & Nhành Nho Bên Cạnh -->
  <g stroke="#15803D" stroke-width="1.8" stroke-linecap="round" fill="none">
    <path d="M22 72 Q26 58 32 52"/>
    <path d="M74 72 Q70 58 64 52"/>
  </g>
  <!-- Hạt lúa mì vàng óng -->
  <circle cx="21" cy="68" r="2.5" fill="#EAB308"/>
  <circle cx="25" cy="60" r="2.5" fill="#EAB308"/>
  <circle cx="29" cy="53" r="2.5" fill="#EAB308"/>
  <!-- Chùm nho tím phụng vụ -->
  <circle cx="72" cy="62" r="2.5" fill="#7E22CE"/>
  <circle cx="76" cy="66" r="2.5" fill="#9333EA"/>
  <circle cx="68" cy="68" r="2.5" fill="#7E22CE"/>
</svg>